<?xml version="1.0" encoding="UTF-8" standalone="no"?>
<!DOCTYPE svg PUBLIC "-//W3C//DTD SVG 1.1//EN" "http://www.w3.org/Graphics/SVG/1.1/DTD/svg11.dtd">
<svg width="100%" height="100%" viewBox="0 0 568 351" version="1.1" xmlns="http://www.w3.org/2000/svg" xmlns:xlink="http://www.w3.org/1999/xlink" xml:space="preserve" xmlns:serif="http://www.serif.com/" style="fill-rule:evenodd;clip-rule:evenodd;stroke-linejoin:round;stroke-miterlimit:2;">
    <g transform="matrix(1,0,0,1,-295.809,-250.737)">
        <path d="M825.39,601.261L312.552,601.261C303.504,601.25 296.062,593.808 296.052,584.761L296.052,276.607C296.059,269.978 301.511,264.526 308.14,264.518L829.593,264.518C836.336,264.526 841.883,270.073 841.89,276.816L841.89,584.761C841.88,593.808 834.438,601.25 825.39,601.261Z" style="fill:rgb(209,213,219);fill-rule:nonzero;"/>
    </g>
    <g transform="matrix(1,0,0,1,-295.809,-250.737)">
        <path d="M328.552,584.761L809.39,584.761C818.168,584.761 825.39,577.538 825.39,568.761L825.39,307.213C825.39,298.435 818.168,291.213 809.39,291.213L328.552,291.213C319.774,291.213 312.552,298.435 312.552,307.213L312.552,568.761C312.552,577.538 319.774,584.761 328.552,584.761Z" style="fill:white;fill-rule:nonzero;"/>
    </g>
    <g transform="matrix(1,0,0,1,-295.809,-250.737)">
        <path d="M841.66,275.663L295.82,275.663L295.82,267.263C295.833,258.185 303.302,250.72 312.38,250.713L825.1,250.713C834.178,250.72 841.647,258.185 841.66,267.263L841.66,275.663Z" style="fill:rgb(14,165,233);fill-rule:nonzero;"/>
    </g>
    <g transform="matrix(1,0,0,1,-114.945,-144.276)">
        <circle cx="145.051" cy="156.752" r="4.283" style="fill:white;"/>
    </g>
    <g transform="matrix(1,0,0,1,-114.945,-144.276)">
        <circle cx="161.31" cy="156.752" r="4.283" style="fill:white;"/>
    </g>
    <g transform="matrix(1,0,0,1,-114.945,-144.276)">
        <circle cx="177.569" cy="156.752" r="4.283" style="fill:white;"/>
    </g>
    <g transform="matrix(1,0,0,1,-295.809,-250.737)">
        <path d="M583.974,528.04L540.974,528.04C535.765,528.034 531.48,523.749 531.474,518.54L531.474,475.54C531.48,470.33 535.765,466.045 540.974,466.04L583.974,466.04C589.184,466.045 593.468,470.33 593.474,475.54L593.474,518.54C593.468,523.749 589.184,528.034 583.974,528.04ZM540.974,468.04C536.862,468.044 533.479,471.427 533.474,475.54L533.474,518.54C533.479,522.652 536.862,526.035 540.974,526.04L583.974,526.04C588.087,526.035 591.47,522.652 591.474,518.54L591.474,475.54C591.47,471.427 588.087,468.044 583.974,468.04L540.974,468.04Z" style="fill:rgb(204,204,204);fill-rule:nonzero;"/>
    </g>
    <g transform="matrix(1,0,0,1,-295.809,-250.737)">
        <path d="M575.474,516.04L549.474,516.04C547.829,516.038 546.476,514.685 546.474,513.04L546.474,481.04C546.476,479.394 547.829,478.041 549.474,478.04L568.314,478.04C568.997,478.04 569.66,478.274 570.193,478.701L577.353,484.455C578.063,485.023 578.477,485.884 578.474,486.793L578.474,513.04C578.473,514.685 577.119,516.038 575.474,516.04ZM549.474,480.04C548.926,480.04 548.475,480.491 548.474,481.04L548.474,513.04C548.475,513.588 548.926,514.039 549.474,514.04L575.474,514.04C576.023,514.039 576.474,513.588 576.474,513.04L576.474,486.793C576.475,486.491 576.337,486.203 576.101,486.014L568.94,480.26C568.762,480.117 568.541,480.04 568.314,480.04L549.474,480.04Z" style="fill:rgb(204,204,204);fill-rule:nonzero;"/>
    </g>
    <g transform="matrix(1,0,0,1,-295.809,-250.737)">
        <path d="M570.474,492.04L554.474,492.04C553.926,492.04 553.474,491.588 553.474,491.04C553.474,490.491 553.926,490.04 554.474,490.04L570.474,490.04C571.023,490.04 571.474,490.491 571.474,491.04C571.474,491.588 571.023,492.04 570.474,492.04Z" style="fill:rgb(204,204,204);fill-rule:nonzero;"/>
    </g>
    <g transform="matrix(1,0,0,1,-295.809,-250.737)">
        <path d="M570.474,498.04L554.474,498.04C553.926,498.04 553.474,497.588 553.474,497.04C553.474,496.491 553.926,496.04 554.474,496.04L570.474,496.04C571.023,496.04 571.474,496.491 571.474,497.04C571.474,497.588 571.023,498.04 570.474,498.04Z" style="fill:rgb(204,204,204);fill-rule:nonzero;"/>
    </g>
    <g transform="matrix(1,0,0,1,-295.809,-250.737)">
        <path d="M570.474,504.04L554.474,504.04C553.926,504.04 553.474,503.588 553.474,503.04C553.474,502.491 553.926,502.04 554.474,502.04L570.474,502.04C571.023,502.04 571.474,502.491 571.474,503.04C571.474,503.588 571.023,504.04 570.474,504.04Z" style="fill:rgb(204,204,204);fill-rule:nonzero;"/>
    </g>
    <g transform="matrix(1,0,0,1,-295.809,-250.737)">
        <path d="M685.974,528.04L642.974,528.04C637.765,528.034 633.48,523.749 633.474,518.54L633.474,475.54C633.48,470.33 637.765,466.045 642.974,466.04L685.974,466.04C691.184,466.045 695.468,470.33 695.474,475.54L695.474,518.54C695.468,523.749 691.184,528.034 685.974,528.04ZM642.974,468.04C638.862,468.044 635.479,471.427 635.474,475.54L635.474,518.54C635.479,522.652 638.862,526.035 642.974,526.04L685.974,526.04C690.087,526.035 693.47,522.652 693.474,518.54L693.474,475.54C693.47,471.427 690.087,468.044 685.974,468.04L642.974,468.04Z" style="fill:rgb(204,204,204);fill-rule:nonzero;"/>
    </g>
    <g transform="matrix(1,0,0,1,-295.809,-250.737)">
        <path d="M678.474,508.04L650.474,508.04C648.829,508.038 647.476,506.685 647.474,505.04L647.474,489.04C647.476,487.394 648.829,486.041 650.474,486.04L678.474,486.04C680.119,486.041 681.473,487.394 681.474,489.04L681.474,505.04C681.473,506.685 680.119,508.038 678.474,508.04ZM650.474,488.04C649.926,488.04 649.475,488.491 649.474,489.04L649.474,505.04C649.475,505.588 649.926,506.039 650.474,506.04L678.474,506.04C679.023,506.039 679.474,505.588 679.474,505.04L679.474,489.04C679.474,488.491 679.023,488.04 678.474,488.04L650.474,488.04Z" style="fill:rgb(204,204,204);fill-rule:nonzero;"/>
    </g>
    <g transform="matrix(1,0,0,1,-295.809,-250.737)">
        <path d="M664.474,499.678C663.913,499.679 663.362,499.522 662.885,499.225L647.944,489.888C647.653,489.705 647.476,489.384 647.476,489.041C647.476,488.492 647.927,488.04 648.476,488.04C648.663,488.04 648.846,488.093 649.005,488.191L663.945,497.529C664.269,497.73 664.681,497.73 665.005,497.529L679.944,488.191C680.103,488.093 680.286,488.04 680.473,488.04C681.021,488.04 681.473,488.492 681.473,489.041C681.473,489.384 681.296,489.705 681.005,489.888L666.065,499.225C665.588,499.522 665.037,499.679 664.474,499.678Z" style="fill:rgb(204,204,204);fill-rule:nonzero;"/>
    </g>
    <g transform="matrix(1,0,0,1,-295.809,-250.737)">
        <path d="M481.974,528.04L438.974,528.04C433.765,528.034 429.48,523.749 429.474,518.54L429.474,475.54C429.48,470.33 433.765,466.045 438.974,466.04L481.974,466.04C487.184,466.045 491.468,470.33 491.474,475.54L491.474,518.54C491.468,523.749 487.184,528.034 481.974,528.04ZM438.974,468.04C434.862,468.044 431.479,471.427 431.474,475.54L431.474,518.54C431.479,522.652 434.862,526.035 438.974,526.04L481.974,526.04C486.087,526.035 489.47,522.652 489.474,518.54L489.474,475.54C489.47,471.427 486.087,468.044 481.974,468.04L438.974,468.04Z" style="fill:rgb(204,204,204);fill-rule:nonzero;"/>
    </g>
    <g transform="matrix(1,0,0,1,-295.809,-250.737)">
        <path d="M474.474,508.04L446.474,508.04C444.829,508.038 443.476,506.685 443.474,505.04L443.474,489.04C443.476,487.394 444.829,486.041 446.474,486.04L474.474,486.04C476.119,486.041 477.473,487.394 477.474,489.04L477.474,505.04C477.473,506.685 476.119,508.038 474.474,508.04ZM446.474,488.04C445.926,488.04 445.475,488.491 445.474,489.04L445.474,505.04C445.475,505.588 445.926,506.039 446.474,506.04L474.474,506.04C475.023,506.039 475.474,505.588 475.474,505.04L475.474,489.04C475.474,488.491 475.023,488.04 474.474,488.04L446.474,488.04Z" style="fill:rgb(204,204,204);fill-rule:nonzero;"/>
    </g>
    <g transform="matrix(1,0,0,1,-295.809,-250.737)">
        <path d="M470.036,508.04L449.912,508.04C448.815,508.04 447.912,507.137 447.912,506.04C447.912,505.689 448.005,505.344 448.18,505.04L454.242,494.54C454.599,493.922 455.261,493.54 455.974,493.54C456.688,493.54 457.349,493.922 457.706,494.54L461.621,501.321L463.889,497.392C464.246,496.774 464.908,496.392 465.622,496.392C466.335,496.392 466.997,496.774 467.354,497.392L471.769,505.04C471.944,505.344 472.037,505.688 472.037,506.04C472.037,507.137 471.134,508.04 470.037,508.04C470.037,508.04 470.036,508.04 470.036,508.04L470.036,508.04ZM470.036,506.04L465.621,498.392L462.488,503.821C462.309,504.13 461.978,504.321 461.621,504.321C461.265,504.321 460.934,504.13 460.755,503.821L455.974,495.54L449.912,506.04L470.036,506.04Z" style="fill:rgb(204,204,204);fill-rule:nonzero;"/>
    </g>
    <g transform="matrix(1,0,0,1,-114.945,-144.276)">
        <circle cx="290.61" cy="385.579" r="2" style="fill:rgb(204,204,204);"/>
    </g>
    <g transform="matrix(1,0,0,1,-295.809,-250.737)">
        <path d="M846.297,415.433L542.297,415.433C533.25,415.423 525.808,407.981 525.797,398.933L525.797,333.933C525.808,324.885 533.25,317.443 542.297,317.433L846.297,317.433C855.345,317.444 862.787,324.885 862.797,333.933L862.797,398.933C862.787,407.981 855.345,415.423 846.297,415.433Z" style="fill:white;fill-rule:nonzero;"/>
    </g>
    <g transform="matrix(1,0,0,1,-295.809,-250.737)">
        <path d="M846.297,415.933L542.297,415.933C532.975,415.923 525.308,408.255 525.297,398.933L525.297,333.933C525.308,324.611 532.975,316.944 542.297,316.933L846.297,316.933C855.619,316.944 863.287,324.611 863.297,333.933L863.297,398.933C863.287,408.255 855.619,415.923 846.297,415.933ZM542.297,318.933C534.072,318.943 527.307,325.708 527.297,333.933L527.297,398.933C527.307,407.158 534.072,413.924 542.297,413.933L846.297,413.933C854.522,413.924 861.288,407.158 861.297,398.933L861.297,333.933C861.288,325.708 854.522,318.943 846.297,318.933L542.297,318.933Z" style="fill:rgb(63,61,86);fill-rule:nonzero;"/>
    </g>
    <g transform="matrix(1,0,0,1,-295.809,-250.737)">
        <path d="M809.297,399.433L579.297,399.433C570.249,399.423 562.807,391.981 562.797,382.933L562.797,348.933C562.807,339.885 570.249,332.443 579.297,332.433L809.297,332.433C818.345,332.443 825.787,339.885 825.797,348.933L825.797,382.933C825.787,391.981 818.345,399.423 809.297,399.433Z" style="fill:rgb(242,242,242);fill-rule:nonzero;"/>
    </g>
    <g transform="matrix(1,0,0,1,-114.945,-144.276)">
        <circle cx="447.928" cy="254.915" r="19.732" style="fill:rgb(125,211,252);"/>
    </g>
    <g transform="matrix(1,0,0,1,-295.809,-250.737)">
        <path d="M795.004,397.442L767.152,374.082L739.78,351.126C738.295,349.88 736.108,349.885 734.627,351.136L707.344,374.198L700.68,379.831L690.632,371.403L660.095,345.793C658.61,344.547 656.422,344.551 654.942,345.802L624.504,371.531L593.587,397.664C593.363,397.854 593.233,398.134 593.233,398.428C593.233,398.977 593.684,399.428 594.233,399.428C594.233,399.428 594.234,399.428 594.235,399.428L657.621,399.306L677.685,399.267L677.489,399.433L737.297,399.318L794.364,399.208C794.912,399.207 795.362,398.756 795.362,398.208C795.362,397.913 795.231,397.632 795.004,397.442Z" style="fill:rgb(63,61,86);fill-rule:nonzero;"/>
    </g>
    <g transform="matrix(1,0,0,1,-295.809,-250.737)">
        <path d="M377.474,438.933L334.474,438.933C329.265,438.927 324.98,434.643 324.974,429.433L324.974,386.433C324.98,381.224 329.265,376.939 334.474,376.933L377.474,376.933C382.684,376.939 386.968,381.224 386.974,386.433L386.974,429.433C386.968,434.643 382.684,438.927 377.474,438.933Z" style="fill:white;fill-rule:nonzero;"/>
    </g>
    <g transform="matrix(1,0,0,1,-295.809,-250.737)">
        <path d="M377.474,438.933L334.474,438.933C329.265,438.927 324.98,434.643 324.974,429.433L324.974,386.433C324.98,381.224 329.265,376.939 334.474,376.933L377.474,376.933C382.684,376.939 386.968,381.224 386.974,386.433L386.974,429.433C386.968,434.643 382.684,438.927 377.474,438.933ZM334.474,378.933C330.362,378.938 326.979,382.321 326.974,386.433L326.974,429.433C326.979,433.546 330.362,436.929 334.474,436.933L377.474,436.933C381.587,436.929 384.97,433.546 384.974,429.433L384.974,386.433C384.97,382.321 381.587,378.938 377.474,378.933L334.474,378.933Z" style="fill:rgb(63,61,86);fill-rule:nonzero;"/>
    </g>
    <g transform="matrix(1,0,0,1,-295.809,-250.737)">
        <path d="M369.974,421.433L341.974,421.433C340.329,421.431 338.976,420.078 338.974,418.433L338.974,397.433C338.976,395.788 340.329,394.435 341.974,394.433L349.857,394.433C350.898,394.429 351.869,394.972 352.412,395.86L354.61,399.433L369.974,399.433C371.619,399.435 372.973,400.788 372.974,402.433L372.974,418.433C372.973,420.078 371.619,421.431 369.974,421.433Z" style="fill:rgb(14,165,233);fill-rule:nonzero;"/>
    </g>
</svg>
