<?xml version="1.0" encoding="UTF-8" standalone="no"?>
<!DOCTYPE svg PUBLIC "-//W3C//DTD SVG 1.1//EN" "http://www.w3.org/Graphics/SVG/1.1/DTD/svg11.dtd">
<svg width="100%" height="100%" viewBox="0 0 1653 256" version="1.1" xmlns="http://www.w3.org/2000/svg" xmlns:xlink="http://www.w3.org/1999/xlink" xml:space="preserve" xmlns:serif="http://www.serif.com/" style="fill-rule:evenodd;clip-rule:evenodd;stroke-linejoin:round;stroke-miterlimit:2;">
    <g id="Work-on-Copy" serif:id="Work on Copy" transform="matrix(1,0,0,1,152.895,-524.504)">
        <g id="VERO">
            <g transform="matrix(300,0,0,357.143,-159.145,774.818)">
                <path d="M0.268,-0C0.257,-0 0.248,-0.003 0.241,-0.009C0.234,-0.014 0.229,-0.021 0.226,-0.03L0.024,-0.67L0.022,-0.679C0.022,-0.684 0.024,-0.689 0.029,-0.694C0.033,-0.698 0.038,-0.7 0.044,-0.7L0.175,-0.7C0.185,-0.7 0.193,-0.697 0.2,-0.692C0.206,-0.686 0.21,-0.68 0.212,-0.673L0.348,-0.221L0.485,-0.673C0.487,-0.68 0.491,-0.687 0.498,-0.692C0.504,-0.697 0.512,-0.7 0.522,-0.7L0.653,-0.7C0.659,-0.7 0.664,-0.698 0.668,-0.694C0.672,-0.689 0.674,-0.684 0.674,-0.679C0.674,-0.676 0.674,-0.673 0.673,-0.67L0.47,-0.03C0.468,-0.021 0.464,-0.014 0.457,-0.009C0.45,-0.003 0.44,-0 0.429,-0L0.268,-0Z" style="fill:white;fill-rule:nonzero;"/>
            </g>
            <g transform="matrix(300,0,0,300,49.9554,774.818)">
                <path d="M0.093,-0C0.086,-0 0.081,-0.003 0.076,-0.008C0.07,-0.013 0.068,-0.018 0.068,-0.025L0.068,-0.674C0.068,-0.681 0.07,-0.688 0.075,-0.693C0.08,-0.698 0.086,-0.7 0.093,-0.7L0.565,-0.7C0.572,-0.7 0.579,-0.698 0.584,-0.693C0.589,-0.688 0.591,-0.681 0.591,-0.674L0.591,-0.575C0.591,-0.568 0.589,-0.562 0.584,-0.557C0.579,-0.552 0.572,-0.55 0.565,-0.55L0.249,-0.55L0.249,-0.423L0.543,-0.423C0.55,-0.423 0.557,-0.421 0.562,-0.416C0.567,-0.41 0.569,-0.404 0.569,-0.397L0.569,-0.306C0.569,-0.299 0.567,-0.293 0.562,-0.288C0.557,-0.282 0.55,-0.28 0.543,-0.28L0.249,-0.28L0.249,-0.15L0.573,-0.15C0.58,-0.15 0.587,-0.148 0.592,-0.142C0.597,-0.138 0.599,-0.131 0.599,-0.124L0.599,-0.025C0.599,-0.018 0.597,-0.012 0.592,-0.007C0.587,-0.002 0.58,-0 0.573,-0L0.093,-0Z" style="fill:white;fill-rule:nonzero;"/>
            </g>
            <g transform="matrix(300,0,0,300,242.555,774.818)">
                <path d="M0.093,-0C0.086,-0 0.081,-0.003 0.076,-0.008C0.07,-0.013 0.068,-0.018 0.068,-0.025L0.068,-0.674C0.068,-0.681 0.07,-0.688 0.075,-0.693C0.08,-0.698 0.086,-0.7 0.093,-0.7L0.368,-0.7C0.456,-0.7 0.525,-0.68 0.575,-0.64C0.624,-0.6 0.649,-0.544 0.649,-0.471C0.649,-0.424 0.638,-0.385 0.617,-0.352C0.595,-0.319 0.565,-0.294 0.527,-0.276L0.662,-0.032C0.664,-0.028 0.665,-0.024 0.665,-0.021C0.665,-0.016 0.663,-0.011 0.659,-0.007C0.655,-0.002 0.65,-0 0.644,-0L0.503,-0C0.484,-0 0.47,-0.009 0.462,-0.027L0.352,-0.244L0.256,-0.244L0.256,-0.025C0.256,-0.018 0.254,-0.012 0.249,-0.007C0.244,-0.002 0.237,-0 0.23,-0L0.093,-0ZM0.367,-0.391C0.396,-0.391 0.418,-0.398 0.433,-0.412C0.448,-0.427 0.455,-0.447 0.455,-0.472C0.455,-0.497 0.448,-0.518 0.433,-0.533C0.418,-0.548 0.396,-0.556 0.367,-0.556L0.256,-0.556L0.256,-0.391L0.367,-0.391Z" style="fill:white;fill-rule:nonzero;"/>
            </g>
            <g transform="matrix(275,0,0,275,451.055,774.818)">
                <path d="M0.508,-0.531C0.454,-0.487 0.413,-0.422 0.385,-0.335C0.37,-0.288 0.362,-0.241 0.362,-0.192C0.362,-0.108 0.39,-0.066 0.445,-0.066C0.473,-0.066 0.502,-0.077 0.532,-0.101C0.562,-0.124 0.589,-0.154 0.613,-0.191C0.636,-0.228 0.656,-0.271 0.672,-0.322C0.687,-0.373 0.695,-0.424 0.695,-0.475C0.695,-0.546 0.682,-0.597 0.657,-0.627C0.631,-0.658 0.589,-0.673 0.529,-0.673C0.496,-0.673 0.46,-0.669 0.421,-0.662C0.383,-0.655 0.351,-0.647 0.324,-0.638C0.297,-0.63 0.274,-0.622 0.252,-0.615C0.231,-0.608 0.219,-0.604 0.216,-0.604C0.204,-0.604 0.198,-0.609 0.198,-0.619C0.198,-0.626 0.206,-0.637 0.222,-0.649C0.238,-0.662 0.26,-0.675 0.289,-0.689C0.318,-0.703 0.349,-0.715 0.384,-0.728C0.465,-0.756 0.545,-0.77 0.622,-0.77C0.771,-0.77 0.876,-0.726 0.938,-0.64C0.974,-0.589 0.992,-0.525 0.992,-0.45C0.992,-0.393 0.982,-0.34 0.962,-0.29C0.942,-0.24 0.914,-0.196 0.879,-0.159C0.843,-0.121 0.802,-0.089 0.754,-0.062C0.657,-0.008 0.548,0.02 0.425,0.02C0.186,0.02 0.066,-0.062 0.066,-0.226C0.066,-0.272 0.076,-0.316 0.096,-0.358C0.116,-0.4 0.142,-0.437 0.174,-0.468C0.206,-0.499 0.243,-0.526 0.283,-0.55C0.365,-0.597 0.448,-0.62 0.53,-0.62C0.543,-0.62 0.553,-0.618 0.558,-0.613C0.564,-0.608 0.567,-0.604 0.567,-0.599C0.567,-0.594 0.566,-0.59 0.565,-0.586C0.563,-0.583 0.56,-0.579 0.556,-0.574C0.552,-0.57 0.548,-0.566 0.545,-0.563C0.537,-0.555 0.525,-0.545 0.508,-0.531Z" style="fill:white;fill-rule:nonzero;"/>
            </g>
        </g>
        <g id="XYLE--1DA1F2" serif:id="XYLE #1DA1F2">
            <g transform="matrix(300,0,0,357.143,726.055,774.818)">
                <path d="M0.031,-0C0.026,-0 0.021,-0.002 0.017,-0.007C0.012,-0.011 0.01,-0.016 0.01,-0.021C0.01,-0.025 0.011,-0.029 0.013,-0.033L0.231,-0.357L0.03,-0.667C0.028,-0.671 0.027,-0.675 0.027,-0.679C0.027,-0.684 0.029,-0.689 0.034,-0.694C0.038,-0.698 0.043,-0.7 0.048,-0.7L0.201,-0.7C0.216,-0.7 0.228,-0.693 0.237,-0.678L0.35,-0.504L0.467,-0.678C0.476,-0.693 0.488,-0.7 0.502,-0.7L0.648,-0.7C0.653,-0.7 0.658,-0.698 0.663,-0.694C0.667,-0.689 0.669,-0.684 0.669,-0.679C0.669,-0.675 0.668,-0.671 0.666,-0.667L0.463,-0.359L0.683,-0.033C0.685,-0.029 0.686,-0.025 0.686,-0.021C0.686,-0.016 0.684,-0.011 0.68,-0.007C0.675,-0.002 0.67,-0 0.665,-0L0.507,-0C0.492,-0 0.481,-0.007 0.472,-0.02L0.344,-0.206L0.219,-0.02C0.21,-0.007 0.199,-0 0.184,-0L0.031,-0Z" style="fill:rgb(25,211,252);fill-rule:nonzero;"/>
            </g>
            <g transform="matrix(300,0,0,300,934.855,774.818)">
                <path d="M0.273,-0C0.266,-0 0.261,-0.003 0.256,-0.008C0.251,-0.013 0.248,-0.018 0.248,-0.025L0.248,-0.238L0.017,-0.668C0.015,-0.671 0.014,-0.675 0.014,-0.679C0.014,-0.684 0.016,-0.689 0.021,-0.694C0.025,-0.698 0.03,-0.7 0.035,-0.7L0.167,-0.7C0.176,-0.7 0.184,-0.698 0.19,-0.693C0.196,-0.688 0.2,-0.683 0.203,-0.678L0.342,-0.427L0.481,-0.678C0.484,-0.683 0.488,-0.688 0.494,-0.693C0.5,-0.698 0.508,-0.7 0.517,-0.7L0.649,-0.7C0.654,-0.7 0.659,-0.698 0.664,-0.694C0.668,-0.689 0.67,-0.684 0.67,-0.679C0.67,-0.675 0.669,-0.671 0.667,-0.668L0.436,-0.238L0.436,-0.025C0.436,-0.018 0.434,-0.012 0.429,-0.007C0.424,-0.002 0.417,-0 0.41,-0L0.273,-0Z" style="fill:rgb(25,211,252);fill-rule:nonzero;"/>
            </g>
            <g transform="matrix(300,0,0,300,1140.06,774.818)">
                <path d="M0.093,-0C0.086,-0 0.081,-0.003 0.076,-0.008C0.07,-0.013 0.068,-0.018 0.068,-0.025L0.068,-0.675C0.068,-0.682 0.07,-0.688 0.076,-0.693C0.081,-0.698 0.086,-0.7 0.093,-0.7L0.233,-0.7C0.24,-0.7 0.246,-0.698 0.251,-0.693C0.256,-0.688 0.258,-0.682 0.258,-0.675L0.258,-0.157L0.558,-0.157C0.565,-0.157 0.572,-0.155 0.577,-0.15C0.582,-0.145 0.584,-0.138 0.584,-0.131L0.584,-0.025C0.584,-0.018 0.582,-0.012 0.577,-0.007C0.572,-0.002 0.565,-0 0.558,-0L0.093,-0Z" style="fill:rgb(25,211,252);fill-rule:nonzero;"/>
            </g>
            <g transform="matrix(300,0,0,300,1320.06,774.818)">
                <path d="M0.093,-0C0.086,-0 0.081,-0.003 0.076,-0.008C0.07,-0.013 0.068,-0.018 0.068,-0.025L0.068,-0.674C0.068,-0.681 0.07,-0.688 0.075,-0.693C0.08,-0.698 0.086,-0.7 0.093,-0.7L0.565,-0.7C0.572,-0.7 0.579,-0.698 0.584,-0.693C0.589,-0.688 0.591,-0.681 0.591,-0.674L0.591,-0.575C0.591,-0.568 0.589,-0.562 0.584,-0.557C0.579,-0.552 0.572,-0.55 0.565,-0.55L0.249,-0.55L0.249,-0.423L0.543,-0.423C0.55,-0.423 0.557,-0.421 0.562,-0.416C0.567,-0.41 0.569,-0.404 0.569,-0.397L0.569,-0.306C0.569,-0.299 0.567,-0.293 0.562,-0.288C0.557,-0.282 0.55,-0.28 0.543,-0.28L0.249,-0.28L0.249,-0.15L0.573,-0.15C0.58,-0.15 0.587,-0.148 0.592,-0.142C0.597,-0.138 0.599,-0.131 0.599,-0.124L0.599,-0.025C0.599,-0.018 0.597,-0.012 0.592,-0.007C0.587,-0.002 0.58,-0 0.573,-0L0.093,-0Z" style="fill:rgb(25,211,252);fill-rule:nonzero;"/>
            </g>
        </g>
    </g>
</svg>
