<svg height="32" width="140" xmlns="http://www.w3.org/2000/svg"><path d="M11.256 5.895c5.937 0 8.662 3.52 8.662 10.144 0 6.016-2.823 10.016-8.662 10.016-2.078 0-3.905-.607-5.324-1.616l-.32-.24-.065.064.058 5.713a.842.842 0 0 1-.5.774l-.135.048-3.898 1.018a.85.85 0 0 1-1.058-.663L0 31.002v-23.9c0-.413.302-.757.7-.828l.154-.014h2.895c.328 0 .622.185.764.468l.052.127.398 1.28c1.525-1.408 3.471-2.24 6.293-2.24zM40.337.15a.85.85 0 0 1 .84.69l.014.152v23.9a.846.846 0 0 1-.7.828l-.154.014h-2.895a.855.855 0 0 1-.764-.468l-.052-.127-.398-1.28c-1.525 1.408-3.471 2.24-6.294 2.24-5.936 0-8.66-3.52-8.66-10.144 0-6.016 2.821-10.016 8.66-10.016 2.079 0 3.905.607 5.325 1.616l.32.24.065-.064-.059-5.713a.842.842 0 0 1 .5-.775l.136-.047L40.119.179a.865.865 0 0 1 .218-.028zm73.88 5.996c5.582 0 9.175 3.134 9.175 9.022l-.01.406c-.013.302-.038.67-.076 1.105a.85.85 0 0 1-.85.769h-12.344c.289 2.817 2.213 4.052 5.966 4.052l.72-.004c1.049-.014 1.462-.086 2.906-.427.151-.036.335-.098.552-.187a.86.86 0 0 1 1.044.319l.075.141 1.018 2.473a.838.838 0 0 1-.47 1.097l-.077.027c-2.668.784-4.815 1.157-6.441 1.12-7.6-.178-11.003-3.768-11.003-10.162 0-5.794 3.176-9.75 9.816-9.75zm23.2.099c.375 0 .73.024 1.06.065l.375.06c.463.088.766.53.677.986l-.028.104-1.154 3.459a.856.856 0 0 1-1.017.553l-.268-.06a7.192 7.192 0 0 0-1.249-.103c-3.015 0-4.074 1.995-4.074 5.288v8.306a.848.848 0 0 1-.854.842h-3.81a.848.848 0 0 1-.853-.842V7.594c0-.465.382-.842.854-.842h2.82a.85.85 0 0 1 .841.701l.425 2.465h.096c1.347-2.406 3.528-3.672 6.159-3.672zM78.865 7.305l.146.025 3.97 1.048c.315.083.545.34.598.648l.011.135v15.775c0 .398-.29.729-.673.797l-.148.013H78.8a.819.819 0 0 1-.809-.664l-.013-.146V8.112a.819.819 0 0 1 .744-.807h.144zM75.213 0a.842.842 0 0 1 .846.953l-.034.148-1.156 3.532a.85.85 0 0 1-.657.569l-.155.014h-8.752v4.832h8.067a.854.854 0 0 1 .841.7l.012.15-.033 3.18a.846.846 0 0 1-.702.82l-.152.014h-8.033v9.98a.846.846 0 0 1-.7.83l-.154.013h-3.858a.85.85 0 0 1-.84-.691l-.014-.151V2.245c0-1.167.903-2.126 2.057-2.235l.219-.01h13.198zM54.076.116c.568 0 1.157.039 1.723.105.272.032.604.084.996.157l.103.027c.383.124.61.5.557.88l-.034.142-.571 1.715a.821.821 0 0 1-.845.555l-.105-.008c-.239-.014-.48-.02-.721-.02-2.25 0-3.124.721-3.205 1.863l-.007.184v.608h4.077a.85.85 0 0 1 .84.69l.014.152v2.22a.846.846 0 0 1-.7.829l-.154.013h-4.077v14.665a.846.846 0 0 1-.7.828l-.153.014H47.24a.85.85 0 0 1-.84-.691l-.013-.151V10.228h-2.066a.85.85 0 0 1-.84-.69l-.014-.152v-2.22c0-.413.302-.757.7-.828l.154-.014h2.033v-.608c0-2.976 2.271-5.6 7.72-5.6zm42.763 2.528c.075 0 .15.01.222.03l3.874 1.028a.844.844 0 0 1 .632.813v20.374a.848.848 0 0 1-.854.842h-3.874a.848.848 0 0 1-.854-.842V3.486c0-.465.383-.842.854-.842zm-8.98 0c.074 0 .15.01.221.03l3.874 1.028a.844.844 0 0 1 .632.813v20.374a.848.848 0 0 1-.853.842h-3.874a.848.848 0 0 1-.854-.842V3.486c0-.465.382-.842.854-.842zm-56.303 8c-3.276 0-4.509 1.568-4.509 5.536 0 4.096 1.006 5.696 4.51 5.696 2.067 0 3.309-.787 3.91-1.545l.112-.15v-7.937c-.746-.928-2.174-1.6-4.023-1.6zM9.634 10.12c-2.068 0-3.309.787-3.91 1.545l-.112.15v7.937c.746.928 2.173 1.6 4.022 1.6 3.277 0 4.51-1.568 4.51-5.536 0-4.096-1.006-5.696-4.51-5.696zm104.737.365c-2.855 0-4.01 1.172-4.266 3.64h8.372c-.064-2.468-1.604-3.64-4.106-3.64zM78.861.676l.146.025 3.967 1.049c.314.083.545.339.598.647l.011.135v2.206a.82.82 0 0 1-.888.808l-.146-.025-3.967-1.049a.815.815 0 0 1-.597-.647l-.012-.135V1.484a.819.819 0 0 1 .744-.807h.144z" fill="#E8501F" fill-rule="nonzero"></path></svg>