<svg height="206.02667" id="svg2" sodipodi:docname="Xfinity_logo_red_RGB.eps" version="1.1" viewBox="0 0 610.71997 206.02667" width="610.71997" xml:space="preserve" xmlns="http://www.w3.org/2000/svg" xmlns:cc="http://creativecommons.org/ns#" xmlns:dc="http://purl.org/dc/elements/1.1/" xmlns:inkscape="http://www.inkscape.org/namespaces/inkscape" xmlns:rdf="http://www.w3.org/1999/02/22-rdf-syntax-ns#" xmlns:sodipodi="http://sodipodi.sourceforge.net/DTD/sodipodi-0.dtd" xmlns:svg="http://www.w3.org/2000/svg"><metadata id="metadata8"><rdf:rdf><cc:work rdf:about=""><dc:format>image/svg+xml</dc:format><dc:type rdf:resource="http://purl.org/dc/dcmitype/StillImage"></dc:type></cc:work></rdf:rdf></metadata><defs id="defs6"></defs><sodipodi:namedview bordercolor="#666666" borderopacity="1" gridtolerance="10" guidetolerance="10" id="namedview4" inkscape:pageopacity="0" inkscape:pageshadow="2" inkscape:window-height="480" inkscape:window-width="640" objecttolerance="10" pagecolor="#ffffff"></sodipodi:namedview><g id="g10" inkscape:groupmode="layer" inkscape:label="ink_ext_XXXXXX" transform="matrix(1.3333333,0,0,-1.3333333,0,206.02667)"><g id="g12" transform="scale(0.1)"><path d="M 1022.26,1004.88 V 344.441 H 1185 v 660.439 h 208.56 v 145.36 H 1185 v 60.04 c 0,137.46 82.16,183.28 162.74,183.28 20.54,0 39.5,-3.16 55.3,-7.9 l 33.18,143.78 c -20.54,7.9 -53.72,15.8 -101.12,15.8 -202.24,0 -312.84,-150.1 -312.84,-331.8 v -63.2 H 936.941 L 834.238,1004.88 Z M 3278.5,630.422 c 0,-175.383 107.44,-300.203 300.2,-300.203 47.4,0 86.9,6.32 118.5,15.801 l -33.18,142.199 c -20.54,-4.739 -45.82,-7.899 -74.26,-7.899 -79,0 -148.52,42.66 -148.52,153.266 v 371.294 h 227.52 l -66.36,145.36 h -161.16 v 323.9 l -162.74,-71.1 v -252.8 H 3106.28 V 1004.88 H 3278.5 Z M 1880.2,1150.24 V 344.441 h 162.74 v 553 c 50.56,71.098 123.24,115.339 213.3,115.339 120.08,0 202.24,-75.842 202.24,-227.522 V 421.859 c 0,-45.82 31.6,-77.418 75.84,-77.418 h 86.9 v 469.258 c 0,208.561 -132.72,353.921 -325.48,353.921 -102.7,0 -188.02,-36.34 -252.8,-96.38 v 79 z M 3991.08,60.0391 4580.42,1150.24 h -88.48 c -53.72,0 -94.8,-15.8 -116.92,-56.88 L 4142.76,662.02 3942.1,1093.36 c -20.54,42.66 -63.2,56.88 -116.92,56.88 h -85.32 L 4049.54,492.961 3779.36,0 h 88.48 c 55.3,0 99.54,17.3789 123.24,60.0391 z M 1523.12,344.441 h 162.74 v 805.799 h -162.74 z m 1290.86,0 h 162.74 V 1150.24 H 2813.98 Z M 511.922,764.719 799.48,1150.24 H 679.398 c -53.718,0 -88.48,-18.96 -116.918,-56.88 L 410.801,889.543 263.859,1093.36 c -28.437,37.92 -63.199,56.88 -116.918,56.88 H 26.8633 L 311.262,764.719 0,344.441 h 113.762 c 53.718,0 88.48,18.957 116.918,56.879 L 410.801,639.902 832.66,56.8789 C 859.52,18.9609 895.859,0 949.582,0 H 1072.82 L 511.922,764.719" id="path14" style="fill:#cd1d2a;fill-opacity:1;fill-rule:nonzero;stroke:none"></path></g></g></svg>